<?xml version="1.0" standalone="no"?>
<!DOCTYPE svg PUBLIC "-//W3C//DTD SVG 20010904//EN"
 "http://www.w3.org/TR/2001/REC-SVG-20010904/DTD/svg10.dtd">
<svg version="1.0" xmlns="http://www.w3.org/2000/svg"
 width="900.000000pt" height="278.000000pt" viewBox="0 0 900.000000 278.000000"
 preserveAspectRatio="xMidYMid meet">

<g transform="translate(0.000000,278.000000) scale(0.100000,-0.100000)"
fill="#000000" stroke="none">
<path d="M0 1390 l0 -1390 4500 0 4500 0 0 1390 0 1390 -4500 0 -4500 0 0
-1390z m2695 912 c584 -294 558 -271 393 -353 l-103 -51 -403 201 -402 201
-415 -207 -415 -208 -2 -485 -3 -485 -106 -54 c-65 -34 -112 -52 -122 -48 -16
6 -17 55 -17 604 l0 598 533 267 c292 147 541 267 552 267 11 0 241 -111 510
-247z m-435 -202 c44 -22 80 -44 80 -48 0 -4 -119 -67 -265 -140 -233 -117
-268 -137 -291 -171 -81 -124 6 -290 153 -291 26 0 69 16 141 52 l104 53 334
-170 334 -170 0 -72 c0 -42 -4 -73 -10 -73 -5 0 -133 62 -284 137 l-274 137
-41 -19 c-23 -10 -41 -21 -41 -24 0 -4 144 -78 320 -166 176 -88 320 -163 320
-167 0 -4 -36 -26 -80 -48 l-80 -40 -331 166 -332 166 -39 -18 c-21 -9 -38
-20 -38 -23 0 -3 144 -77 320 -163 176 -86 320 -161 320 -167 0 -6 -30 -26
-67 -44 l-66 -34 -335 165 -334 164 -39 -17 c-21 -10 -39 -21 -39 -24 0 -4
144 -78 320 -166 176 -88 320 -163 320 -167 0 -4 -36 -26 -80 -48 l-80 -40
-333 167 -332 168 -3 420 -2 420 332 167 c183 92 334 167 336 167 1 1 38 -17
82 -39z m385 -192 l205 -103 0 -247 c0 -158 -4 -248 -10 -248 -16 0 -560 274
-560 282 0 4 32 24 72 44 68 34 71 37 53 51 -43 31 -59 26 -254 -71 -105 -53
-202 -96 -216 -96 -34 0 -80 24 -99 52 -21 30 -20 97 2 126 17 22 563 310 589
311 7 1 105 -45 218 -101z m613 40 c9 -9 12 -154 12 -592 0 -320 -4 -586 -8
-592 -9 -13 -1062 -544 -1080 -544 -6 0 -237 113 -513 250 -451 226 -500 253
-497 273 2 17 27 35 105 75 l102 52 401 -200 400 -200 415 207 415 208 0 476
c0 365 3 479 13 491 14 19 185 107 208 107 8 1 20 -4 27 -11z m720 -91 c36
-37 42 -49 42 -85 l0 -43 -47 3 c-39 2 -49 7 -51 23 -8 42 -31 55 -100 55 -54
0 -70 -4 -89 -22 -22 -20 -23 -29 -23 -143 0 -160 4 -165 109 -165 82 0 101 9
101 47 0 21 4 23 50 23 l50 0 0 -42 c0 -35 -6 -49 -37 -80 l-37 -38 -125 0
-125 0 -43 42 -43 42 0 170 0 170 42 43 42 43 121 0 121 0 42 -43z m210 31 c9
-9 12 -69 12 -210 l0 -197 123 -3 122 -3 0 -40 0 -40 -175 0 -175 0 -3 240
c-1 132 0 245 2 252 7 16 78 17 94 1z m691 -32 c37 -38 42 -48 39 -82 l-3 -39
-45 0 c-37 0 -45 4 -48 20 -8 43 -31 55 -105 55 -105 0 -107 -4 -107 -163 0
-165 2 -167 110 -167 90 0 103 9 98 67 -3 38 -3 38 -50 41 l-48 3 0 40 0 39
100 0 100 0 0 -102 0 -102 -37 -38 -37 -38 -130 0 -130 0 -38 37 -38 37 0 175
0 175 42 43 42 43 121 0 121 0 43 -44z m340 -160 l126 -199 5 199 5 199 25 0
25 0 0 -250 0 -250 -30 0 c-28 0 -38 13 -155 197 l-125 198 -3 -201 -2 -200
-28 3 -27 3 -3 230 c-1 127 0 240 3 253 4 18 11 23 32 20 22 -3 46 -34 152
-202z m639 161 l42 -43 0 -174 0 -174 -37 -38 -37 -38 -120 0 -120 0 -38 37
-38 37 0 175 0 175 42 43 42 43 111 0 111 0 42 -43z m457 13 c0 -24 -3 -25
-72 -28 l-73 -3 -2 -222 -3 -222 -27 -3 -28 -3 -2 223 -3 223 -73 3 c-77 3
-97 17 -72 47 11 13 41 15 184 13 l171 -3 0 -25z m133 -228 l2 -252 -25 0 -25
0 0 248 c0 137 3 252 7 256 4 4 14 5 23 4 13 -3 15 -37 18 -256z m430 215 c52
-53 56 -87 12 -87 -16 0 -30 5 -30 12 0 6 -10 22 -22 35 -19 20 -31 23 -105
23 -76 0 -86 -2 -108 -25 -24 -23 -25 -28 -25 -171 0 -147 0 -148 27 -176 25
-26 33 -28 103 -28 83 0 114 14 131 57 12 32 52 29 57 -6 3 -16 -8 -35 -34
-62 l-38 -39 -110 0 -110 0 -43 42 -43 42 0 170 0 170 42 43 42 43 106 0 106
0 42 -43z m187 -212 l0 -250 -27 -3 -28 -3 0 249 c0 137 3 252 7 256 4 4 16 6
28 4 20 -3 20 -9 20 -253z m313 243 c12 -16 172 -465 172 -485 0 -10 -9 -13
-27 -11 -24 3 -31 11 -49 63 l-21 60 -107 3 c-66 2 -106 -1 -106 -7 0 -6 -9
-35 -21 -66 -17 -45 -25 -55 -44 -55 -13 0 -26 4 -29 9 -5 7 154 466 170 492
8 13 50 11 62 -3z m537 -19 c44 -39 50 -89 11 -89 -17 0 -29 9 -38 28 -13 26
-16 27 -102 30 -108 3 -126 -7 -126 -76 0 -72 15 -82 129 -82 l95 0 38 -37
c37 -36 38 -38 38 -112 0 -71 -2 -77 -32 -108 l-32 -33 -116 0 -116 0 -33 34
c-38 40 -40 79 -4 84 17 3 26 -3 33 -22 13 -36 40 -46 121 -46 95 0 119 19
119 93 0 78 -14 87 -129 87 l-95 0 -38 37 c-36 35 -38 40 -38 102 0 62 2 67
37 103 l37 38 103 0 c100 0 103 -1 138 -31z m-4108 -681 c25 -24 31 -58 10
-58 -8 0 -22 9 -32 20 -14 15 -31 20 -70 20 -28 0 -56 -5 -63 -12 -8 -8 -12
-45 -12 -102 0 -110 10 -126 81 -126 41 0 51 4 65 25 9 14 23 25 30 25 21 0
17 -31 -8 -57 -18 -20 -31 -23 -92 -23 -58 0 -74 4 -93 22 -21 20 -23 30 -23
127 0 100 1 106 27 133 24 25 34 28 92 28 53 0 69 -4 88 -22z m285 -5 c27 -26
28 -30 28 -132 0 -94 -2 -107 -22 -128 -19 -20 -31 -23 -97 -23 -63 0 -78 3
-98 22 -21 20 -23 29 -23 132 0 99 2 112 22 133 18 20 31 23 92 23 62 0 73 -3
98 -27z m198 -97 l75 -118 3 122 c2 108 4 121 20 118 15 -3 17 -19 17 -153 0
-142 -1 -150 -20 -153 -16 -2 -35 21 -90 108 -38 61 -73 114 -77 116 -4 3 -8
-47 -8 -110 0 -96 -3 -116 -15 -116 -13 0 -15 24 -15 156 0 194 5 196 110 30z
m302 -13 l3 -138 78 -3 c59 -2 77 -6 77 -17 0 -12 -18 -15 -95 -15 l-95 0 0
155 c0 130 2 155 15 155 12 0 15 -24 17 -137z m394 -13 c29 -80 53 -149 53
-153 1 -5 -9 -7 -21 -5 -14 2 -25 14 -33 38 -11 34 -13 35 -73 38 l-61 3 -12
-41 c-9 -28 -18 -40 -31 -40 -10 0 -18 5 -18 11 0 6 23 76 52 155 68 192 73
192 144 -6z m401 128 c26 -24 31 -58 8 -58 -8 0 -19 9 -25 20 -9 16 -21 20
-68 20 -32 0 -63 -5 -70 -12 -8 -8 -12 -45 -12 -102 0 -110 10 -126 80 -126
56 0 83 23 78 67 -2 24 -8 28 -35 31 -21 2 -33 9 -33 18 0 10 13 14 50 14 l50
0 0 -57 c0 -84 -21 -103 -114 -103 -58 0 -74 4 -93 22 -21 20 -23 30 -23 127
0 100 1 106 27 133 24 25 34 28 92 28 53 0 69 -4 88 -22z m283 2 c0 -18 -7
-20 -80 -20 l-80 0 0 -50 0 -50 75 0 c59 0 75 -3 75 -15 0 -11 -17 -15 -72
-17 l-73 -3 -3 -52 -3 -53 80 0 c65 0 81 -3 81 -15 0 -12 -18 -15 -100 -15
l-100 0 0 148 c0 82 3 152 7 155 3 4 48 7 100 7 86 0 93 -1 93 -20z m156 -87
c99 -158 94 -158 94 -15 0 102 2 122 15 122 13 0 15 -24 15 -155 0 -145 -1
-155 -19 -155 -13 0 -41 35 -92 117 l-74 118 -3 -118 c-2 -109 -4 -117 -22
-117 -19 0 -20 7 -20 148 0 205 9 209 106 55z m389 87 c0 -10 -13 -16 -42 -18
l-42 -3 -3 -132 c-3 -115 -5 -132 -20 -135 -16 -3 -18 10 -20 130 l-3 133 -40
3 c-44 4 -61 14 -50 31 4 8 42 11 113 9 87 -2 107 -6 107 -18z m245 0 c0 -18
-7 -20 -80 -20 l-80 0 0 -50 0 -50 75 0 c59 0 75 -3 75 -15 0 -11 -17 -15 -72
-17 l-73 -3 -3 -52 -3 -53 80 0 c65 0 81 -3 81 -15 0 -12 -18 -15 -100 -15
l-100 0 0 148 c0 82 3 152 7 155 3 4 48 7 100 7 86 0 93 -1 93 -20z"/>
<path d="M5592 1817 c-21 -22 -22 -33 -22 -172 0 -148 0 -149 27 -177 25 -26
32 -28 108 -28 76 0 83 2 108 28 27 28 27 29 27 178 0 144 -1 151 -23 172 -20
19 -35 22 -113 22 -82 0 -93 -2 -112 -23z"/>
<path d="M7307 1703 c-21 -59 -37 -111 -37 -115 0 -5 34 -8 75 -8 53 0 75 4
75 12 0 17 -61 201 -70 211 -3 4 -23 -41 -43 -100z"/>
<path d="M3932 1158 c-16 -16 -16 -200 0 -216 20 -20 112 -15 131 6 21 23 25
190 5 210 -7 7 -37 12 -68 12 -31 0 -61 -5 -68 -12z"/>
<path d="M4892 1093 c-12 -33 -22 -65 -22 -72 0 -12 76 -16 83 -3 2 4 -5 36
-17 71 l-22 64 -22 -60z"/>
</g>
</svg>
