<?xml version="1.0" standalone="no"?>
<!DOCTYPE svg PUBLIC "-//W3C//DTD SVG 20010904//EN"
 "http://www.w3.org/TR/2001/REC-SVG-20010904/DTD/svg10.dtd">
<svg version="1.0" xmlns="http://www.w3.org/2000/svg"
 width="212.000000pt" height="90.000000pt" viewBox="0 0 212.000000 90.000000"
 preserveAspectRatio="xMidYMid meet">

<g transform="translate(0.000000,90.000000) scale(0.100000,-0.100000)"
fill="#000000" stroke="none">
<path d="M268 702 c-119 -43 -188 -132 -188 -244 l0 -58 -40 0 c-22 0 -40 -4
-40 -10 0 -6 27 -10 60 -10 33 0 60 -4 60 -10 0 -5 -22 -10 -50 -10 -27 0 -50
-4 -50 -10 0 -5 23 -10 50 -10 28 0 50 -4 50 -10 0 -5 -18 -10 -40 -10 -22 0
-40 -4 -40 -10 0 -5 19 -10 41 -10 32 0 49 -7 77 -31 76 -67 174 -91 264 -65
144 42 226 167 198 302 -20 94 -91 167 -195 199 -63 19 -97 18 -157 -3z m137
-126 c52 -22 77 -69 72 -135 -3 -47 -9 -59 -40 -88 -30 -27 -45 -33 -79 -33
-77 0 -138 61 -138 137 0 43 32 96 71 115 41 22 69 22 114 4z"/>
<path d="M670 465 l0 -255 70 0 69 0 3 136 3 136 105 -136 105 -136 62 0 63 0
0 255 0 255 -70 0 -70 0 0 -136 0 -136 -106 136 -107 136 -63 0 -64 0 0 -255z"/>
</g>
</svg>
