<?xml version="1.0" standalone="no"?>
<!DOCTYPE svg PUBLIC "-//W3C//DTD SVG 20010904//EN"
 "http://www.w3.org/TR/2001/REC-SVG-20010904/DTD/svg10.dtd">
<svg version="1.0" xmlns="http://www.w3.org/2000/svg"
 width="185.000000pt" height="64.000000pt" viewBox="0 0 185.000000 64.000000"
 preserveAspectRatio="xMidYMid meet">

<g transform="translate(0.000000,64.000000) scale(0.100000,-0.100000)"
fill="#000000" stroke="none">
<path d="M830 580 c0 -47 -3 -60 -15 -60 -9 0 -15 -9 -15 -25 0 -15 6 -25 14
-25 12 0 15 -26 18 -135 3 -152 10 -168 81 -180 l37 -7 0 36 c0 25 -6 38 -20
46 -18 10 -20 21 -20 125 0 108 1 115 20 115 15 0 20 7 20 25 0 18 -5 25 -20
25 -18 0 -20 7 -20 60 l0 60 -40 0 -40 0 0 -60z"/>
<path d="M102 514 c-12 -8 -22 -10 -22 -5 0 6 -18 11 -40 11 l-40 0 0 -260 0
-260 40 0 40 0 0 91 0 90 22 -15 c30 -21 71 -20 98 2 20 16 23 30 28 114 6
123 -4 204 -29 229 -23 23 -67 25 -97 3z m42 -80 c3 -9 6 -56 6 -104 0 -75 -3
-91 -18 -99 -11 -6 -24 -6 -35 0 -14 8 -17 26 -17 108 0 54 3 101 7 104 12 13
51 7 57 -9z"/>
<path d="M646 513 c-13 -13 -20 -15 -23 -5 -3 6 -20 12 -39 12 l-34 0 0 -185
0 -185 35 0 35 0 0 131 c0 136 8 169 40 169 32 0 40 -33 40 -169 l0 -131 35 0
35 0 0 165 c0 163 0 166 -25 190 -29 29 -73 33 -99 8z"/>
<path d="M1028 515 c-42 -24 -48 -45 -48 -179 0 -116 2 -127 23 -152 18 -20
35 -28 74 -31 45 -5 53 -2 84 25 l34 30 0 131 c0 128 -1 131 -26 157 -33 33
-101 42 -141 19z m90 -172 c2 -93 1 -103 -17 -112 -36 -20 -51 10 -51 104 0
103 5 117 39 113 26 -3 26 -3 29 -105z"/>
<path d="M270 370 c0 -187 12 -220 84 -220 12 0 32 7 44 16 20 14 22 14 22 0
0 -12 10 -16 40 -16 l40 0 0 185 0 185 -40 0 -40 0 0 -140 c0 -121 -2 -140
-17 -149 -11 -6 -24 -6 -35 0 -16 9 -18 26 -18 149 l0 140 -40 0 -40 0 0 -150z"/>
</g>
</svg>
